<?xml version="1.0" encoding="UTF-8"?>
<!DOCTYPE svg PUBLIC "-//W3C//DTD SVG 1.1//EN" "http://www.w3.org/Graphics/SVG/1.1/DTD/svg11.dtd">
<svg xmlns="http://www.w3.org/2000/svg" version="1.1" width="800px" height="800px" style="shape-rendering:geometricPrecision; text-rendering:geometricPrecision; image-rendering:optimizeQuality; fill-rule:evenodd; clip-rule:evenodd" xmlns:xlink="http://www.w3.org/1999/xlink">
<g><path style="opacity:0.999" fill="#102e44" d="M 371.5,-0.5 C 390.167,-0.5 408.833,-0.5 427.5,-0.5C 552.677,11.6314 652.511,67.9648 727,168.5C 769.317,229.614 793.484,297.281 799.5,371.5C 799.5,390.167 799.5,408.833 799.5,427.5C 787.369,552.677 731.035,652.511 630.5,727C 569.386,769.317 501.719,793.484 427.5,799.5C 408.833,799.5 390.167,799.5 371.5,799.5C 246.323,787.369 146.489,731.035 72,630.5C 29.6827,569.386 5.51601,501.719 -0.5,427.5C -0.5,408.833 -0.5,390.167 -0.5,371.5C 11.6314,246.323 67.9648,146.489 168.5,72C 229.614,29.6827 297.281,5.51601 371.5,-0.5 Z"/></g>
<g><path style="opacity:1" fill="#aef7f7" d="M 633.5,272.5 C 682.532,269.752 718.032,290.085 740,333.5C 755.89,378.062 747.057,416.895 713.5,450C 688.374,470.313 659.708,478.146 627.5,473.5C 627.172,468.125 627.505,462.792 628.5,457.5C 668.959,463.859 700.125,449.859 722,415.5C 741.611,374.228 734.778,338.061 701.5,307C 665.676,281.474 629.676,281.14 593.5,306C 567.228,328.645 556.894,357.145 562.5,391.5C 557.5,391.5 552.5,391.5 547.5,391.5C 541.672,344.326 559.005,308.493 599.5,284C 610.442,278.631 621.775,274.798 633.5,272.5 Z"/></g>
<g><path style="opacity:1" fill="#fbfcfc" d="M 229.5,302.5 C 264.61,299.467 285.443,315.134 292,349.5C 294.072,375.222 287.738,398.555 273,419.5C 249.205,444.716 222.039,449.216 191.5,433C 181.914,425.331 175.747,415.497 173,403.5C 167.943,375.366 173.61,349.7 190,326.5C 200.708,314.239 213.874,306.239 229.5,302.5 Z"/></g>
<g><path style="opacity:1" fill="#fbfbfb" d="M 330.5,302.5 C 354.069,300.891 363.903,311.891 360,335.5C 357.895,350.36 354.895,365.026 351,379.5C 346.959,402.809 355.459,409.309 376.5,399C 386.547,389.753 393.714,378.587 398,365.5C 403.594,349.274 407.261,332.607 409,315.5C 410.112,304.721 415.946,300.554 426.5,303C 431.273,305.107 433.606,308.774 433.5,314C 428.601,346.128 423.934,378.295 419.5,410.5C 428.669,408.555 437.836,406.555 447,404.5C 452.856,405.869 454.856,409.536 453,415.5C 452.214,418.583 450.381,420.749 447.5,422C 437.129,423.407 426.962,425.574 417,428.5C 414.963,444.316 410.296,459.316 403,473.5C 389.292,493.293 370.792,499.793 347.5,493C 336.182,485.718 332.348,475.551 336,462.5C 340.911,449.587 349.411,439.754 361.5,433C 372.696,426.735 384.363,421.568 396.5,417.5C 398.334,407.494 399.834,397.494 401,387.5C 394.536,404.296 383.036,416.13 366.5,423C 341.228,428.034 327.894,417.7 326.5,392C 326.571,387.12 327.071,382.287 328,377.5C 330.985,364.227 333.652,350.894 336,337.5C 336.667,333.167 336.667,328.833 336,324.5C 332.817,322.477 329.317,321.977 325.5,323C 322.328,324.752 319.328,326.752 316.5,329C 311.815,334.083 307.148,339.083 302.5,344C 297.241,344.241 294.908,341.574 295.5,336C 299.387,323.097 307.387,313.43 319.5,307C 323.266,305.441 326.932,303.941 330.5,302.5 Z"/></g>
<g><path style="opacity:1" fill="#fbfcfc" d="M 101.5,302.5 C 121.129,301.481 140.463,303.315 159.5,308C 164.155,310.897 165.655,315.063 164,320.5C 162.326,324.089 159.493,325.755 155.5,325.5C 153.081,356.938 146.915,387.605 137,417.5C 133.282,427.274 128.282,436.274 122,444.5C 108.351,459.831 92.1848,463.331 73.5,455C 62.2057,444.174 59.3724,431.341 65,416.5C 70.1514,406.03 77.3181,397.196 86.5,390C 99.223,381.388 112.723,374.222 127,368.5C 129.403,353.233 131.236,337.9 132.5,322.5C 120.162,322.333 107.829,322.5 95.5,323C 87.1731,323.784 79.6731,326.618 73,331.5C 69.8141,335.298 68.8141,339.632 70,344.5C 71.6057,347.872 72.7724,351.372 73.5,355C 72.8832,359.679 70.2166,362.679 65.5,364C 61.2071,365.202 57.7071,364.035 55,360.5C 44.354,335.633 51.5206,318.133 76.5,308C 84.8284,305.508 93.1618,303.675 101.5,302.5 Z"/></g>
<g><path style="opacity:1" fill="#acf4f4" d="M 635.5,433.5 C 634.945,429.988 635.612,426.988 637.5,424.5C 663.412,427.465 682.245,417.465 694,394.5C 704.34,363.697 695.173,340.864 666.5,326C 635.828,316.439 613.328,325.939 599,354.5C 595.469,364.273 594.635,374.273 596.5,384.5C 593.167,384.5 589.833,384.5 586.5,384.5C 584.056,348.8 599.723,325.3 633.5,314C 671.589,309.783 696.089,325.95 707,362.5C 709.512,402.299 691.345,426.133 652.5,434C 646.805,434.626 641.138,434.459 635.5,433.5 Z"/></g>
<g><path style="opacity:1" fill="#112f44" d="M 232.5,321.5 C 250.973,320.795 262.473,329.462 267,347.5C 270.167,369.862 265.833,390.529 254,409.5C 241.374,423.496 226.541,426.663 209.5,419C 200.793,411.568 196.293,402.068 196,390.5C 193.747,370.848 198.08,352.848 209,336.5C 215.231,328.812 223.065,323.812 232.5,321.5 Z"/></g>
<g><path style="opacity:1" fill="#133046" d="M 122.5,387.5 C 121.181,402.063 117.014,416.063 110,429.5C 107.203,433.299 104.036,436.799 100.5,440C 89.6058,444.442 83.9392,440.775 83.5,429C 85.3242,416.17 91.6576,406.17 102.5,399C 109.098,394.873 115.765,391.04 122.5,387.5 Z"/></g>
<g><path style="opacity:1" fill="#aff8f7" d="M 617.5,396.5 C 618.675,396.281 619.675,396.614 620.5,397.5C 604.982,435.863 589.482,474.197 574,512.5C 565.649,504.648 557.149,496.982 548.5,489.5C 537.81,500.023 527.643,511.023 518,522.5C 516.887,524.329 515.387,525.163 513.5,525C 508.351,521.018 503.685,516.518 499.5,511.5C 510.735,499.355 521.735,487.022 532.5,474.5C 524.344,466.511 516.01,458.678 507.5,451C 544.351,433.074 581.017,414.908 617.5,396.5 Z"/></g>
<g><path style="opacity:1" fill="#568894" d="M 637.5,424.5 C 635.612,426.988 634.945,429.988 635.5,433.5C 634.521,430.375 634.187,427.042 634.5,423.5C 635.791,423.263 636.791,423.596 637.5,424.5 Z"/></g>
<g><path style="opacity:1" fill="#112f45" d="M 590.5,426.5 C 591.239,426.369 591.906,426.536 592.5,427C 584.329,446.85 576.162,466.684 568,486.5C 556.833,476 545.667,465.5 534.5,455C 553.352,445.741 572.019,436.241 590.5,426.5 Z"/></g>
<g><path style="opacity:1" fill="#133046" d="M 391.5,435.5 C 392.5,435.5 393.5,435.5 394.5,435.5C 393.169,447.486 389.669,458.82 384,469.5C 377.956,477.272 370.122,480.105 360.5,478C 358.333,477.167 356.833,475.667 356,473.5C 353.8,464.406 356.3,456.906 363.5,451C 372.155,444.508 381.488,439.342 391.5,435.5 Z"/></g>
</svg>
