<svg version="1.1" id="Layer_1" xmlns="http://www.w3.org/2000/svg" xmlns:xlink="http://www.w3.org/1999/xlink" x="0px" y="0px"
	 width="100%" viewBox="0 0 734 734" enable-background="new 0 0 734 734" xml:space="preserve">
<path fill="#FF0101" opacity="1.000000" stroke="none" 
	d="
M327.000000,1.000003 
	C354.020905,1.000000 381.041779,1.000000 408.324677,1.390582 
	C408.939209,2.116437 409.251953,2.685208 409.650085,2.753095 
	C422.014099,4.861358 434.504211,6.393625 446.727051,9.123977 
	C461.260864,12.370548 475.915375,15.673547 489.879517,20.718225 
	C506.250549,26.632412 522.225037,33.864601 537.821716,41.629608 
	C549.457947,47.422878 560.544128,54.498173 571.290283,61.856857 
	C584.424194,70.850616 597.501404,80.086479 609.598022,90.396873 
	C625.991638,104.369804 641.446777,119.556854 654.215027,136.975906 
	C667.004395,154.423737 679.550903,172.173126 690.550354,190.768463 
	C698.635498,204.436951 704.518555,219.494156 710.518921,234.283051 
	C715.563171,246.715363 720.267761,259.429657 723.474426,272.425812 
	C727.247681,287.718781 729.170410,303.463928 732.078369,318.978760 
	C732.595520,321.738129 734.003418,324.330505 735.000000,327.000000 
	C735.000000,354.020905 735.000000,381.041779 734.609436,408.324677 
	C733.883606,408.939209 733.314819,409.251953 733.246948,409.650085 
	C731.138672,422.014099 729.606384,434.504150 726.876038,446.726990 
	C723.629456,461.260834 720.326416,475.915344 715.281738,489.879547 
	C709.367554,506.250580 702.135376,522.225098 694.370422,537.821716 
	C688.577148,549.457947 681.501831,560.544128 674.143066,571.290283 
	C665.149292,584.424194 655.913452,597.501465 645.603027,609.598145 
	C631.630188,625.991882 616.442993,641.446655 599.024109,654.214905 
	C581.576294,667.004272 563.826904,679.550964 545.231567,690.550293 
	C531.563049,698.635376 516.505859,704.518555 501.716949,710.518921 
	C489.284668,715.563232 476.570374,720.267700 463.574219,723.474365 
	C448.281250,727.247620 432.536072,729.170410 417.021179,732.078247 
	C414.261871,732.595398 411.669464,734.003357 409.000000,735.000000 
	C381.979095,735.000000 354.958221,735.000000 327.675323,734.609436 
	C327.060699,733.883545 326.747894,733.314819 326.349670,733.246948 
	C313.985687,731.138672 301.495636,729.606384 289.272827,726.875977 
	C274.739014,723.629395 260.084473,720.326355 246.120316,715.281616 
	C229.749268,709.367432 213.774750,702.135315 198.178162,694.370300 
	C186.541901,688.577026 175.455688,681.501770 164.709579,674.143066 
	C151.575668,665.149231 138.498520,655.913330 126.401878,645.602966 
	C110.008156,631.630066 94.553192,616.442932 81.784920,599.023987 
	C68.995522,581.576172 56.449009,563.826782 45.449631,545.231445 
	C37.364578,531.562927 31.481432,516.505798 25.481033,501.716919 
	C20.436810,489.284637 15.732305,476.570312 12.525697,463.574127 
	C8.752401,448.281189 6.829636,432.536041 3.921713,417.021179 
	C3.404538,414.261871 1.996616,411.669464 1.000002,409.000000 
	C1.000000,381.979095 1.000000,354.958221 1.390581,327.675323 
	C2.116496,327.060669 2.685355,326.747833 2.753263,326.349579 
	C4.861475,313.985535 6.393637,301.495453 9.123999,289.272583 
	C12.370575,274.738770 15.673697,260.084381 20.718405,246.120224 
	C26.632610,229.749207 33.864773,213.774704 41.629761,198.178101 
	C47.423035,186.541840 54.498276,175.455627 61.856968,164.709503 
	C70.850746,151.575577 80.086754,138.498535 90.397018,126.401779 
	C104.369759,110.007927 119.557266,94.553253 136.976105,81.784882 
	C154.423798,68.995354 172.173309,56.448967 190.768631,45.449604 
	C204.437119,37.364536 219.494247,31.481394 234.283142,25.481014 
	C246.715424,20.436792 259.429718,15.732277 272.425873,12.525674 
	C287.718811,8.752378 303.463989,6.829627 318.978821,3.921714 
	C321.738129,3.404541 324.330536,1.996617 327.000000,1.000003 
M440.511841,493.782288 
	C437.609833,508.615875 431.097870,521.468567 419.520020,531.432373 
	C399.446777,548.707153 375.823456,551.832153 350.911591,547.262817 
	C327.892639,543.040649 310.761108,530.097656 300.454895,508.823364 
	C295.570801,498.741455 294.083832,487.876068 294.162628,476.755188 
	C294.200928,471.349030 294.169250,465.942413 294.169250,460.585205 
	C271.286011,460.585205 249.206833,460.585205 227.138474,460.585205 
	C227.138474,470.404297 226.622269,479.924713 227.289246,489.361481 
	C227.908478,498.122620 229.265732,506.913177 231.204468,515.485779 
	C241.301071,560.130310 268.614319,589.470581 312.026031,603.050598 
	C344.850708,613.318848 378.483185,613.272522 411.804749,605.369751 
	C442.686584,598.045593 468.196136,581.866699 486.391571,555.344788 
	C490.645386,549.144409 494.051331,542.362366 497.825806,535.885010 
	C489.374542,533.586365 481.895111,531.953857 474.702148,529.486206 
	C467.031158,526.854614 462.882507,521.134766 462.859314,512.798462 
	C462.836121,504.467590 462.723267,496.134369 462.874573,487.806274 
	C463.104858,475.131836 474.092804,467.592407 486.109375,471.737946 
	C488.942871,472.715485 491.690063,474.000732 494.579529,474.747498 
	C502.873108,476.890930 509.162659,472.053589 509.166718,463.705780 
	C509.170837,455.208191 509.280609,446.708221 509.102753,438.214355 
	C509.044830,435.448792 508.682068,432.522186 507.688263,429.969208 
	C496.710724,401.770477 485.578674,373.631927 474.493774,345.474945 
	C467.123840,326.754456 459.643127,308.076355 452.441437,289.291321 
	C448.000000,277.706207 454.750732,265.961456 466.521698,265.490814 
	C480.579224,264.928711 494.676422,265.358276 508.897827,265.358276 
	C508.897827,221.439606 508.897827,176.529984 508.897827,131.354691 
	C486.561340,131.354691 464.494385,131.354691 442.114075,131.354691 
	C442.012024,132.998779 441.843994,134.446884 441.843597,135.895035 
	C441.830170,187.713669 441.799408,239.532410 441.935425,291.350677 
	C441.941833,293.790619 443.196014,296.349609 444.304138,298.642944 
	C448.768219,307.881531 454.392914,316.689880 457.767578,326.296906 
	C464.633484,345.843048 463.798676,366.377045 462.540131,386.659729 
	C461.323669,406.264557 455.442535,424.507019 443.488159,440.501984 
	C442.330750,442.050598 441.959991,444.470642 441.895447,446.507416 
	C441.404938,461.980865 441.081787,477.459564 440.511841,493.782288 
M334.012604,284.523041 
	C311.031433,294.049957 296.195282,310.881287 290.604431,335.041870 
	C284.848938,359.913940 284.781281,385.020660 292.611023,409.502228 
	C298.774323,428.773224 311.581940,442.831024 330.064850,451.439148 
	C345.200287,458.488281 361.268494,459.155060 377.523895,458.021606 
	C408.505035,455.861267 433.818207,435.242859 441.956818,405.379822 
	C447.978760,383.283417 448.060547,360.740784 443.553009,338.573364 
	C437.888123,310.714539 421.422913,291.182831 393.654358,282.820435 
	C374.015594,276.906219 354.220917,277.529480 334.012604,284.523041 
M616.074036,325.658386 
	C621.611389,311.450165 627.148743,297.241943 632.994995,282.241150 
	C623.919739,282.241150 615.644226,282.497650 607.395935,282.134308 
	C603.190430,281.949097 601.404907,283.411407 599.925720,287.296265 
	C584.916077,326.717255 569.689514,366.055695 554.502136,405.408875 
	C553.888550,406.998779 553.060486,408.505890 551.901062,410.967163 
	C534.891846,367.325470 518.290283,324.729767 501.860138,282.573792 
	C490.209290,282.573792 479.314728,282.573792 468.015106,282.573792 
	C468.739960,284.525574 469.281281,286.062988 469.878052,287.578522 
	C489.922638,338.481476 509.490784,389.581482 530.381775,440.134766 
	C535.220947,451.844757 533.614197,461.010040 528.116028,470.913422 
	C527.146606,472.659576 526.171997,474.409851 525.079468,476.079468 
	C518.635071,485.928070 509.656921,491.967163 497.780609,491.894714 
	C491.951874,491.859161 486.136078,489.704376 479.826080,488.408356 
	C479.826080,494.480103 480.218201,500.791229 479.703369,507.027435 
	C479.283264,512.116272 480.999054,514.309509 485.916138,515.652649 
	C507.155823,521.454529 529.592651,518.244934 543.551819,496.540161 
	C551.169006,484.696411 558.281189,472.247589 563.570190,459.237823 
	C581.489868,415.158813 598.494324,370.707733 616.074036,325.658386 
M241.838058,315.500061 
	C241.838058,284.749725 241.838058,253.999374 241.838058,223.344635 
	C230.326263,223.344635 219.585754,223.344635 208.493317,223.344635 
	C208.493317,225.660065 208.493301,227.638504 208.493301,229.616959 
	C208.493286,282.774750 208.494720,335.932556 208.487808,389.090363 
	C208.487549,391.088470 208.389526,393.086395 208.365494,395.084747 
	C208.111969,416.175568 192.245621,428.064026 173.507065,428.446960 
	C155.914429,428.806458 141.043243,418.618988 137.331024,402.925781 
	C135.973755,397.187927 136.058929,391.108887 135.474030,385.061096 
	C124.778862,385.061096 114.070915,385.061096 102.700523,385.061096 
	C103.134895,392.020416 103.152168,398.686157 104.030594,405.236389 
	C107.376122,430.183472 120.673309,447.324951 144.947067,454.892120 
	C161.870132,460.167816 179.231094,460.101959 196.252823,455.439636 
	C216.951355,449.770203 231.429596,436.548401 237.887589,416.010529 
	C240.583557,407.436707 241.480789,398.039124 241.668030,388.984528 
	C242.167419,364.832214 241.838013,340.662750 241.838058,315.500061 
z"/>
<path fill="#000000" opacity="1.000000" stroke="none" 
	d="
M326.531342,1.000003 
	C324.330536,1.996617 321.738129,3.404541 318.978821,3.921714 
	C303.463989,6.829627 287.718811,8.752378 272.425873,12.525674 
	C259.429718,15.732277 246.715424,20.436792 234.283142,25.481014 
	C219.494247,31.481394 204.437119,37.364536 190.768631,45.449604 
	C172.173309,56.448967 154.423798,68.995354 136.976105,81.784882 
	C119.557266,94.553253 104.369759,110.007927 90.397018,126.401779 
	C80.086754,138.498535 70.850746,151.575577 61.856968,164.709503 
	C54.498276,175.455627 47.423035,186.541840 41.629761,198.178101 
	C33.864773,213.774704 26.632610,229.749207 20.718405,246.120224 
	C15.673697,260.084381 12.370575,274.738770 9.123999,289.272583 
	C6.393637,301.495453 4.861475,313.985535 2.753263,326.349579 
	C2.685355,326.747833 2.116496,327.060669 1.390581,327.206665 
	C1.000000,218.406265 1.000000,109.812531 1.000000,1.000000 
	C109.354126,1.000000 217.708405,1.000000 326.531342,1.000003 
z"/>
<path fill="#000000" opacity="1.000000" stroke="none" 
	d="
M735.000000,326.531342 
	C734.003418,324.330505 732.595520,321.738129 732.078369,318.978760 
	C729.170410,303.463928 727.247681,287.718781 723.474426,272.425812 
	C720.267761,259.429657 715.563171,246.715363 710.518921,234.283051 
	C704.518555,219.494156 698.635498,204.436951 690.550354,190.768463 
	C679.550903,172.173126 667.004395,154.423737 654.215027,136.975906 
	C641.446777,119.556854 625.991638,104.369804 609.598022,90.396873 
	C597.501404,80.086479 584.424194,70.850616 571.290283,61.856857 
	C560.544128,54.498173 549.457947,47.422878 537.821716,41.629608 
	C522.225037,33.864601 506.250549,26.632412 489.879517,20.718225 
	C475.915375,15.673547 461.260864,12.370548 446.727051,9.123977 
	C434.504211,6.393625 422.014099,4.861358 409.650085,2.753095 
	C409.251953,2.685208 408.939209,2.116437 408.793335,1.390582 
	C517.593689,1.000000 626.187439,1.000000 735.000000,1.000000 
	C735.000000,109.354126 735.000000,217.708405 735.000000,326.531342 
z"/>
<path fill="#000000" opacity="1.000000" stroke="none" 
	d="
M1.000002,409.468658 
	C1.996616,411.669464 3.404538,414.261871 3.921713,417.021179 
	C6.829636,432.536041 8.752401,448.281189 12.525697,463.574127 
	C15.732305,476.570312 20.436810,489.284637 25.481033,501.716919 
	C31.481432,516.505798 37.364578,531.562927 45.449631,545.231445 
	C56.449009,563.826782 68.995522,581.576172 81.784920,599.023987 
	C94.553192,616.442932 110.008156,631.630066 126.401878,645.602966 
	C138.498520,655.913330 151.575668,665.149231 164.709579,674.143066 
	C175.455688,681.501770 186.541901,688.577026 198.178162,694.370300 
	C213.774750,702.135315 229.749268,709.367432 246.120316,715.281616 
	C260.084473,720.326355 274.739014,723.629395 289.272827,726.875977 
	C301.495636,729.606384 313.985687,731.138672 326.349670,733.246948 
	C326.747894,733.314819 327.060699,733.883545 327.206665,734.609436 
	C218.406265,735.000000 109.812531,735.000000 1.000000,735.000000 
	C1.000000,626.645874 1.000000,518.291565 1.000002,409.468658 
z"/>
<path fill="#000000" opacity="1.000000" stroke="none" 
	d="
M409.468628,735.000000 
	C411.669464,734.003357 414.261871,732.595398 417.021179,732.078247 
	C432.536072,729.170410 448.281250,727.247620 463.574219,723.474365 
	C476.570374,720.267700 489.284668,715.563232 501.716949,710.518921 
	C516.505859,704.518555 531.563049,698.635376 545.231567,690.550293 
	C563.826904,679.550964 581.576294,667.004272 599.024109,654.214905 
	C616.442993,641.446655 631.630188,625.991882 645.603027,609.598145 
	C655.913452,597.501465 665.149292,584.424194 674.143066,571.290283 
	C681.501831,560.544128 688.577148,549.457947 694.370422,537.821716 
	C702.135376,522.225098 709.367554,506.250580 715.281738,489.879547 
	C720.326416,475.915344 723.629456,461.260834 726.876038,446.726990 
	C729.606384,434.504150 731.138672,422.014099 733.246948,409.650085 
	C733.314819,409.251953 733.883606,408.939209 734.609436,408.793335 
	C735.000000,517.593750 735.000000,626.187439 735.000000,735.000000 
	C626.645874,735.000000 518.291565,735.000000 409.468628,735.000000 
z"/>
<path fill="#F6F4F4" opacity="1.000000" stroke="none" 
	d="
M440.609131,493.359467 
	C441.081787,477.459564 441.404938,461.980865 441.895447,446.507416 
	C441.959991,444.470642 442.330750,442.050598 443.488159,440.501984 
	C455.442535,424.507019 461.323669,406.264557 462.540131,386.659729 
	C463.798676,366.377045 464.633484,345.843048 457.767578,326.296906 
	C454.392914,316.689880 448.768219,307.881531 444.304138,298.642944 
	C443.196014,296.349609 441.941833,293.790619 441.935425,291.350677 
	C441.799408,239.532410 441.830170,187.713669 441.843597,135.895035 
	C441.843994,134.446884 442.012024,132.998779 442.114075,131.354691 
	C464.494385,131.354691 486.561340,131.354691 508.897827,131.354691 
	C508.897827,176.529984 508.897827,221.439606 508.897827,265.358276 
	C494.676422,265.358276 480.579224,264.928711 466.521698,265.490814 
	C454.750732,265.961456 448.000000,277.706207 452.441437,289.291321 
	C459.643127,308.076355 467.123840,326.754456 474.493774,345.474945 
	C485.578674,373.631927 496.710724,401.770477 507.688263,429.969208 
	C508.682068,432.522186 509.044830,435.448792 509.102753,438.214355 
	C509.280609,446.708221 509.170837,455.208191 509.166718,463.705780 
	C509.162659,472.053589 502.873108,476.890930 494.579529,474.747498 
	C491.690063,474.000732 488.942871,472.715485 486.109375,471.737946 
	C474.092804,467.592407 463.104858,475.131836 462.874573,487.806274 
	C462.723267,496.134369 462.836121,504.467590 462.859314,512.798462 
	C462.882507,521.134766 467.031158,526.854614 474.702148,529.486206 
	C481.895111,531.953857 489.374542,533.586365 497.825806,535.885010 
	C494.051331,542.362366 490.645386,549.144409 486.391571,555.344788 
	C468.196136,581.866699 442.686584,598.045593 411.804749,605.369751 
	C378.483185,613.272522 344.850708,613.318848 312.026031,603.050598 
	C268.614319,589.470581 241.301071,560.130310 231.204468,515.485779 
	C229.265732,506.913177 227.908478,498.122620 227.289246,489.361481 
	C226.622269,479.924713 227.138474,470.404297 227.138474,460.585205 
	C249.206833,460.585205 271.286011,460.585205 294.169250,460.585205 
	C294.169250,465.942413 294.200928,471.349030 294.162628,476.755188 
	C294.083832,487.876068 295.570801,498.741455 300.454895,508.823364 
	C310.761108,530.097656 327.892639,543.040649 350.911591,547.262817 
	C375.823456,551.832153 399.446777,548.707153 419.520020,531.432373 
	C431.097870,521.468567 437.609833,508.615875 440.609131,493.359467 
z"/>
<path fill="#FFFCFC" opacity="1.000000" stroke="none" 
	d="
M334.369751,284.375946 
	C354.220917,277.529480 374.015594,276.906219 393.654358,282.820435 
	C421.422913,291.182831 437.888123,310.714539 443.553009,338.573364 
	C448.060547,360.740784 447.978760,383.283417 441.956818,405.379822 
	C433.818207,435.242859 408.505035,455.861267 377.523895,458.021606 
	C361.268494,459.155060 345.200287,458.488281 330.064850,451.439148 
	C311.581940,442.831024 298.774323,428.773224 292.611023,409.502228 
	C284.781281,385.020660 284.848938,359.913940 290.604431,335.041870 
	C296.195282,310.881287 311.031433,294.049957 334.369751,284.375946 
M411.314301,396.702240 
	C415.480988,377.558350 415.437103,358.417725 411.002106,339.340393 
	C405.972229,317.704163 389.944214,304.964355 367.220917,304.321594 
	C345.481110,303.706604 328.763550,316.014313 322.824615,337.186707 
	C317.502289,356.160736 317.693726,375.441193 321.243713,394.564880 
	C323.915314,408.956909 330.713562,421.525726 344.563904,428.156250 
	C367.770081,439.265656 402.024597,433.852692 411.314301,396.702240 
z"/>
<path fill="#FFFCFC" opacity="1.000000" stroke="none" 
	d="
M615.961304,326.028625 
	C598.494324,370.707733 581.489868,415.158813 563.570190,459.237823 
	C558.281189,472.247589 551.169006,484.696411 543.551819,496.540161 
	C529.592651,518.244934 507.155823,521.454529 485.916138,515.652649 
	C480.999054,514.309509 479.283264,512.116272 479.703369,507.027435 
	C480.218201,500.791229 479.826080,494.480103 479.826080,488.408356 
	C486.136078,489.704376 491.951874,491.859161 497.780609,491.894714 
	C509.656921,491.967163 518.635071,485.928070 525.079468,476.079468 
	C526.171997,474.409851 527.146606,472.659576 528.116028,470.913422 
	C533.614197,461.010040 535.220947,451.844757 530.381775,440.134766 
	C509.490784,389.581482 489.922638,338.481476 469.878052,287.578522 
	C469.281281,286.062988 468.739960,284.525574 468.015106,282.573792 
	C479.314728,282.573792 490.209290,282.573792 501.860138,282.573792 
	C518.290283,324.729767 534.891846,367.325470 551.901062,410.967163 
	C553.060486,408.505890 553.888550,406.998779 554.502136,405.408875 
	C569.689514,366.055695 584.916077,326.717255 599.925720,287.296265 
	C601.404907,283.411407 603.190430,281.949097 607.395935,282.134308 
	C615.644226,282.497650 623.919739,282.241150 632.994995,282.241150 
	C627.148743,297.241943 621.611389,311.450165 615.961304,326.028625 
z"/>
<path fill="#FFFCFC" opacity="1.000000" stroke="none" 
	d="
M241.838058,316.000092 
	C241.838013,340.662750 242.167419,364.832214 241.668030,388.984528 
	C241.480789,398.039124 240.583557,407.436707 237.887589,416.010529 
	C231.429596,436.548401 216.951355,449.770203 196.252823,455.439636 
	C179.231094,460.101959 161.870132,460.167816 144.947067,454.892120 
	C120.673309,447.324951 107.376122,430.183472 104.030594,405.236389 
	C103.152168,398.686157 103.134895,392.020416 102.700523,385.061096 
	C114.070915,385.061096 124.778862,385.061096 135.474030,385.061096 
	C136.058929,391.108887 135.973755,397.187927 137.331024,402.925781 
	C141.043243,418.618988 155.914429,428.806458 173.507065,428.446960 
	C192.245621,428.064026 208.111969,416.175568 208.365494,395.084747 
	C208.389526,393.086395 208.487549,391.088470 208.487808,389.090363 
	C208.494720,335.932556 208.493286,282.774750 208.493301,229.616959 
	C208.493301,227.638504 208.493317,225.660065 208.493317,223.344635 
	C219.585754,223.344635 230.326263,223.344635 241.838058,223.344635 
	C241.838058,253.999374 241.838058,284.749725 241.838058,316.000092 
z"/>
<path fill="#FF0202" opacity="1.000000" stroke="none" 
	d="
M411.212952,397.100922 
	C402.024597,433.852692 367.770081,439.265656 344.563904,428.156250 
	C330.713562,421.525726 323.915314,408.956909 321.243713,394.564880 
	C317.693726,375.441193 317.502289,356.160736 322.824615,337.186707 
	C328.763550,316.014313 345.481110,303.706604 367.220917,304.321594 
	C389.944214,304.964355 405.972229,317.704163 411.002106,339.340393 
	C415.437103,358.417725 415.480988,377.558350 411.212952,397.100922 
z"/>
</svg>